<svg width="56.693" height="56.693" xmlns="http://www.w3.org/2000/svg">

 <g>
  <title>background</title>
  <rect fill="none" id="canvas_background" height="402" width="582" y="-1" x="-1"/>
 </g>
 <g>
  <title>Layer 1</title>
  <path fill="#ffffff" id="svg_1" d="m28.348,5.155c-13.6,0 -24.625,11.025 -24.625,24.625c0,13.602 11.025,24.625 24.625,24.625c13.6,0 24.623,-11.023 24.623,-24.625c0,-13.6 -11.024,-24.625 -24.623,-24.625zm14.263,18.561c-1.645,9.268 -10.834,17.113 -13.598,18.906c-2.766,1.789 -5.287,-0.721 -6.201,-2.617c-1.047,-2.164 -4.185,-13.896 -5.006,-14.869c-0.822,-0.973 -3.287,0.973 -3.287,0.973l-1.195,-1.57c0,0 5.006,-5.977 8.815,-6.727c4.039,-0.789 4.033,6.204 5.006,10.088c0.939,3.758 1.57,5.904 2.391,5.904c0.822,0 2.391,-2.092 4.109,-5.305c1.721,-3.215 -0.074,-6.055 -3.438,-4.035c1.346,-8.069 14.049,-10.01 12.404,-0.748z"/>
 </g>
</svg>