<svg width="60" height="60" xmlns="http://www.w3.org/2000/svg">
 <title/>
 <desc/>

 <g>
  <title>background</title>
  <rect fill="none" id="canvas_background" height="402" width="582" y="-1" x="-1"/>
 </g>
 <g>
  <title>Layer 1</title>
  <path fill="#cb592a" id="number-one" d="m32,19l0,22c0,0.553 -0.448,1 -1,1c-0.552,0 -1,-0.447 -1,-1l0,-19.586l-4.293,4.293c-0.391,0.391 -1.023,0.391 -1.414,0c-0.391,-0.391 -0.391,-1.023 0,-1.414l6,-6c0.286,-0.287 0.715,-0.374 1.09,-0.217c0.373,0.154 0.617,0.52 0.617,0.924m-2,39c-15.439,0 -28,-12.561 -28,-28c0,-15.439 12.561,-28 28,-28c15.439,0 28,12.561 28,28c0,15.439 -12.561,28 -28,28m0,-58c-16.542,0 -30,13.458 -30,30c0,16.542 13.458,30 30,30c16.542,0 30,-13.458 30,-30c0,-16.542 -13.458,-30 -30,-30"/>
 </g>
</svg>