<svg width="60" height="60" xmlns="http://www.w3.org/2000/svg">
 <title/>
 <desc/>

 <g>
  <title>background</title>
  <rect fill="none" id="canvas_background" height="402" width="582" y="-1" x="-1"/>
 </g>
 <g>
  <title>Layer 1</title>
  <path fill="#cb592a" id="number-two" d="m26.707,38.707c-0.014,0.015 -0.403,0.441 -0.598,1.293l8.891,0c0.552,0 1,0.447 1,1c0,0.553 -0.448,1 -1,1l-10,0c-0.552,0 -1,-0.447 -1,-1c0,-2.15 0.975,-3.361 1.239,-3.651l6.971,-8.963c0.026,-0.033 0.054,-0.064 0.083,-0.093c0.014,-0.015 1.707,-1.767 1.707,-4.293c0,-2.206 -1.794,-4 -4,-4c-2.206,0 -4,1.794 -4,4c0,0.553 -0.448,1 -1,1c-0.552,0 -1,-0.447 -1,-1c0,-3.309 2.691,-6 6,-6c3.309,0 6,2.691 6,6c0,3.136 -1.898,5.29 -2.243,5.655l-6.967,8.959c-0.026,0.032 -0.054,0.064 -0.083,0.093m3.293,19.293c-15.439,0 -28,-12.561 -28,-28c0,-15.439 12.561,-28 28,-28c15.439,0 28,12.561 28,28c0,15.439 -12.561,28 -28,28m0,-58c-16.542,0 -30,13.458 -30,30c0,16.542 13.458,30 30,30c16.542,0 30,-13.458 30,-30c0,-16.542 -13.458,-30 -30,-30"/>
 </g>
</svg>