<svg width="60" height="60" xmlns="http://www.w3.org/2000/svg">
 <title/>
 <desc/>

 <g>
  <title>background</title>
  <rect fill="none" id="canvas_background" height="402" width="582" y="-1" x="-1"/>
 </g>
 <g>
  <title>Layer 1</title>
  <path fill="#cb592a" id="number-three" d="m36,36c0,3.309 -2.691,6 -6,6c-3.309,0 -6,-2.691 -6,-6c0,-0.553 0.448,-1 1,-1c0.552,0 1,0.447 1,1c0,2.206 1.794,4 4,4c2.206,0 4,-1.794 4,-4c0,-2.206 -1.794,-4 -4,-4c-0.334,0 -0.646,-0.167 -0.832,-0.445c-0.186,-0.279 -0.22,-0.631 -0.091,-0.94l4.423,-10.615l-8.5,0c-0.552,0 -1,-0.447 -1,-1c0,-0.553 0.448,-1 1,-1l10,0c0.334,0 0.646,0.167 0.832,0.445c0.186,0.279 0.22,0.631 0.091,0.94l-4.494,10.787c2.621,0.642 4.571,3.012 4.571,5.828m-6,22c-15.439,0 -28,-12.561 -28,-28c0,-15.439 12.561,-28 28,-28c15.439,0 28,12.561 28,28c0,15.439 -12.561,28 -28,28m0,-58c-16.542,0 -30,13.458 -30,30c0,16.542 13.458,30 30,30c16.542,0 30,-13.458 30,-30c0,-16.542 -13.458,-30 -30,-30"/>
 </g>
</svg>