<?xml version="1.0" encoding="utf-8"?>
<!-- Generator: Adobe Illustrator 23.0.3, SVG Export Plug-In . SVG Version: 6.00 Build 0)  -->
<svg version="1.1" id="Lag_1" xmlns="http://www.w3.org/2000/svg" xmlns:xlink="http://www.w3.org/1999/xlink" x="0px" y="0px"
	 viewBox="0 0 653.6 686" style="enable-background:new 0 0 653.6 686;" xml:space="preserve">
<style type="text/css">
	.st0{fill:#090708;}
</style>
<g id="Form_2_1_">
	<desc  xmlns:shape="http://adobe.com/products/shape"></desc>
	<path class="st0" d="M271,9.6c11.2,0.3,21.9,0.2,32.5,1.2c7.5,0.6,14.9,2.7,22.3,4.1c3.7,0.7,3.6,4.3,4,6.7
		c1.4,8.7,2,17.5,3.2,26.2c0.9,6.9,2.2,13.8,3.3,20.6c0.2,1.3,0.8,2.6,0.6,3.8c-1.1,9-0.3,10.1,8.8,10.4c5.3,0.1,10.8-0.7,16,0.1
		c24.3,4,48.8,2.6,73.2,3c6.6,0.1,13.2,1.3,19.7,1.9c0.8,0,1.6-0.3,2.3-0.5c5.6-1.5,8.1,0.2,8.1,5.7c0,5.7,0.4,11.4-0.2,17
		c-0.3,3.5,2.7,3.6,3.7,3.6c8.2,0,16.5-1,24.6-0.6c5.4,0.3,8.1-2.2,10.9-5.9c7.5-10,15.3-19.7,22.8-29.7
		c5.5-7.3,10.8-14.8,16.2-22.2c0.4-0.7,0.6-1.8,1.1-2c4.2-1.2,8.4-2.7,12.7-3.3c3.7-0.5,7.6,0,11.4-0.1c7.9-0.3,15.8-0.6,23.6-1.1
		c1,0,2-0.8,3-1.2c-0.7-0.6-1.4-1.1-1.9-1.7c-0.9-1-2-2-2.5-3.2c-0.4-0.9,0.2-2,0.3-3.1c0.9,0.4,1.9,0.5,2.5,1.1
		c4.6,4.8,8.9,10,13.8,14.6c6.1,5.8,12.8,11,19.1,16.6c5.3,4.9,11,9.8,15.4,15.5c2.2,2.7,2,7.5,2.4,11.4c0.4,3.3,0.1,6.7,0.1,10.1
		c0,10.4-0.3,20.7,0.1,31c0.2,5.1,2.1,10.1-1.3,14.7c-2.7,3.6-5.5,7-7.8,10.8c-6.1,10.4-12,21-18,31.5c-0.4,0.7-0.6,1.5-1.1,2.1
		c-3.4,4-2.3,5.4,2.7,4.9c0.7,0,1.6,0.6,2.4,0.9c-0.8,0.7-1.5,2-2.3,2c-3.5,0.2-7,0.2-10.5,0.1c-7-0.3-14.1-1.2-21.1-0.9
		c-11.3,0.6-22.6,2-33.9,2.8c-1.7,0.1-3.9-1.4-5.3-2.6c-6.5-5.5-12.6-11.4-19.1-16.9c-6.1-5.1-12.4-10.1-18.9-14.8c-1.5-1-4-0.7-6-1
		c-2-0.2-4-0.7-5.9-0.6c-9.6,0.6-19.2,1.2-28.7,2.1c-1.2,0.2-3.2,2.3-3.2,3.5c0.4,11.9,1.2,23.8,1.9,35.6c0,1.2,0,2.4,0,3.5
		c0,31.5,0,63,0,94.5c0,8,0.2,15.9-0.1,23.9c-0.5,15-1.9,30.1-1.7,45.2c0.2,16.4,2.2,32.8,2.6,49.2c0.6,18.6,0.1,37.1,0.2,55.7
		c0.1,10,0.9,19.9,0.9,29.9c0,10.2-0.5,20.4-1,30.6c-0.5,13.4-1.3,26.8-1.9,40.2c-0.7,14.7-1.3,29.4-2.1,44.1
		c-0.4,8.1-1.3,16.2-1.9,24.2c-0.3,3.5,0.8,6.3,4.2,7.8c0.7,0.3,1.1,1.1,1.7,1.6c-0.8,0.5-1.6,1.3-2.5,1.4c-9.5,1-19.1,1.8-28.7,3
		c-8.8,1.2-17.6,2.7-26.3,4c-0.9,0.1-1.7,0-2.5,0c-18.6,1-37.2,2.1-55.8,3c-4.9,0.2-9.8-0.1-14.7,0c-5.3,0.2-10.7,1-16.1,0.9
		c-10.7-0.1-21.3-0.7-32-0.9c-13.3-0.1-26.6,0-39.9,0c-12.2,0-24.5-0.8-36.6,0.2c-13.6,1.1-27,4-40.6,5.7c-4.4,0.6-9,0.4-13.5-0.1
		c-1.3-0.1-3.4-2.2-3.6-3.5c-1.2-12.3-2.7-24.5-3-36.8c-0.3-14.1-0.1-28.3,1.1-42.4c0.9-10.4-0.4-20.5-0.8-30.7
		c-0.6-14.7,1-29.5,1.5-44.2c0.3-6.4-3.4-9.2-9.7-8.2c-3,0.4-6.1,0.8-9.1,1c-7,0.4-14.1,0.8-21.1,1c-5.1,0.1-7.1-1.7-6.9-6.4
		c0.2-7.9,0.5-15.8,0.9-23.6c0.6-11.6,2.2-23.2,1.6-34.7c-0.4-6.4,0.6-13.8-4.3-19.6c-0.4-0.5-0.2-1.5-0.4-2.3
		c-1.8-5.5-3.4-6.2-9.6-5.4c-6.5,0.8-13.1,1.3-19.7,2c-8.4,1-16.8,2.2-25.2,2.9c-4.4,0.4-5.9,2.5-5.5,6.7c0.3,2.3,0.1,4.6,0.1,6.9
		c2.1-0.1,4.3-0.4,6.4-0.5c4.2-0.1,8.3,0.1,12.5,0c8.7-0.3,17.4-0.9,26.1-0.9c3.7,0,7.5,1,11.1,2c1.5,0.5,3.6,2.2,3.8,3.5
		c0.7,4.9,1,9.9,1,14.8c-0.1,3-2.5,3.7-5.3,3.7c-3.1,0-6.2,0.8-9.3,0.8c-2.8,0.1-5.6-0.4-8.4-0.5c-5.8-0.1-11.6-0.6-17.3-0.3
		c-4.6,0.2-9.1,1.5-13.7,1.8c-4,0.3-6.7,1.2-6,6c0.3,1.5,0.1,3,0.1,4.5c0,5.7,1.4,6.5,6.7,5.5c6.2-1.3,12.5-2.2,18.8-2.8
		c8.4-0.9,16.8-1.6,25.2-2c3.4-0.2,5.4-1.2,5.3-4.8c0-0.4,0.3-0.9,0.5-1.3c0.1,0.3,0.4,0.5,0.5,0.8c0.3,2.5,1.2,5.2,0.7,7.5
		c-0.2,1.2-2.9,2.4-4.6,2.6c-7.5,0.9-15.1,1.3-22.6,2.1c-8.5,0.9-16.9,1.9-25.3,3.1c-2.7,0.3-4.4,1.7-4.3,5.1
		c0.2,11.9,0,23.7,0.1,35.5c0.1,3.4,0.9,6.8,0.8,10.1c0,1.4-1.4,2.7-2.2,4c-0.5-1.1-1.3-2.2-1.6-3.5c-1.4-7.4-3.5-14.8-3.9-22.3
		c-0.8-17.6-0.9-35.2-1.1-52.8c0-8.2,0.8-16.4,0.9-24.6c0.5-20.8,0.6-41.7,1.1-62.5c0.3-11.3,1.5-22.5,1.9-33.7
		c0.1-4.8,4.2-0.9,5.2-3c0.3,0.9,0.9,1.9,0.8,2.9c-0.2,5.3-0.6,10.7-0.9,16.1c-0.2,2.4,0.3,3.1,3,2.2c3.1-0.9,6.5-1.5,9.8-1.5
		c14-0.2,28-0.2,42,0c2.5,0,3.3-0.6,3.2-3.2c-0.2-7.5-0.1-15,0-22.5c0-1.1,0.5-2.1,0.8-3.1c1.8,2.3,6.8-1.8,7.2,3.6
		c0.3,5,0.7,10,1,15.1c0.3,7.5,0.7,15,0.9,22.6c0.1,1.1-0.2,2.2-0.3,3.3c-0.2-1-0.4-2-0.6-3c-0.3-1.2-0.7-2.4-1-3.6
		c-0.3-1.1-0.4-2.2-0.5-3.3c-0.5,1.3-1.5,2.6-1.5,3.9c0.3,7,1.1,14,1.2,20.9c0.1,3.3-1.2,6.6-1.1,9.9c0,6.4,0.6,12.8,0.9,19.1
		c0.4,10.9,0.9,21.7,0.9,32.6c-0.1,17-0.6,34.1-0.9,51.1c-0.1,6.8,0.6,7.3,7.3,6.5c4.6-0.5,9.1-0.8,13.6-1
		c15.4-0.4,30.9-0.7,46.3-0.9c1.5-0.1,3,0.7,4.5,1.1c-1.3,0.9-2.4,2.5-3.8,2.7c-6.4,0.9-12.8,1.5-19.2,2c-1.9,0.2-2.8,0.2-2.8,2.6
		c0.1,18.4,0,36.8,0.1,55.2c0.1,7.2,0.8,14.4,0.9,21.6c0.2,14-0.1,28.1,0.1,42.1c0.1,10.6,0.7,21.2,1,31.8c0.1,6.7,4.6,9.5,10.1,5.7
		c4.6-3.1,9.4-3.4,14.5-4c16.1-1.7,32.4-1.4,48.4-4.7c10.7-2.2,21.8-2.4,32.8-3.1c10.3-0.7,20.7-1.1,31-1c14.9,0,29.8,0.7,44.6,0.9
		c12.1,0.1,24.1,0.1,36.2,0c8.2-0.2,16.4-0.9,24.6-1c15.9-0.1,31.9-0.1,47.8,0.1c4.5,0,5.9-1.7,6.1-6.1c0.4-14.4,1.2-28.8,1.9-43.2
		c0.2-5.2,0.7-10.4,1-15.6c0.7-14.7,1.4-29.4,2-44.1c0.4-10.9,0.5-21.8,1-32.6c0.3-4.6-2.3-6.4-6-6.4c-6.4,0-12.7,0.9-19.1,0.8
		c-6.9,0-13.7-0.6-20.5-1c-1.6-0.1-3.1-0.8-4.7-0.9c-12.7-0.4-25.4-0.7-38.1-1c-13.5-0.3-27-1.2-40.5-0.9c-26.6,0.6-53.2,2-79.8,2.8
		c-9.7,0.4-19.5,0.3-29.2-0.1c-1.7,0-3.4-2.1-5.1-3.2c-0.4-0.3-0.7-0.7-1-1.1c0.6-0.2,1.2-0.5,1.8-0.5c8.2-0.3,16.5-0.8,24.7-1
		c10-0.1,19.9,0.2,29.9-0.3c2.6-0.1,5.8-1.8,5.6-5.6c-0.6-8.8-2-17.6-1.4-26.3c0.3-4.3,4.2-8.3,6.5-12.4c0.3,0.4,0.8,0.9,0.8,1.4
		c1.4,12.4,2.7,24.9,4.1,37.3c0.4,3.2,1.6,5.1,5.6,5c22.2-0.5,44.4-0.8,66.6-1c2.5,0,2.8-0.8,2.8-3.1c-0.1-16.3,0.1-32.6-0.1-49
		c-0.1-10.2-0.5-20.4-1-30.6c-0.1-0.8-1.6-2.3-2.3-2.3c-10.7,0.8-21.5,2-32.2,2.9c-5.4,0.4-10.8,0.7-16.1,1c-8,0.4-16.1,0.7-24.1,1
		c-3.7,0.1-5.1,1.4-5.5,5.6c-0.8,8.5,5.7,12.8,9.2,18.8c1.7,2.9,3.5,5.6,5,8.5c0.4,0.8-0.4,2.1-0.6,3.1c-1-0.4-2.3-0.5-2.9-1.2
		c-5.1-5.9-10-11.8-14.9-17.9c-0.6-0.7-0.4-2.1-0.5-3.2c-0.5-4.9,0.7-9.6-2.7-14.5c-2.1-3.1-1.2-8.5-1.3-12.9c0-4-1.7-5.3-5.6-5.4
		c-11.1-0.1-22.2-0.3-33.3-1c-9.9-0.6-19.8-2.4-29.8-2.7c-4.3-0.1-8.7,1.1-12.7-1.3c-1.4-0.8-3.5-2.5-3.5-3.8
		c0-6.8,0.6-13.7,0.8-20.5c0.2-3.8,0.1-7.5,0.1-11.2c0-3.7,0-7.5,0-11.2c0-11,0.6-22-0.3-33c-0.5-6.4,0.7-12.5,1-18.8
		c0.4-9.5-1-19.1-1.7-28.6c-0.6-7.4-1.6-14.8-2-22.2c-0.5-10.7-0.8-21.4-1-32.1c-0.4-16.2-0.6-32.4-1.1-48.6c-0.1-3.4-0.5-7-5.4-6.9
		c-0.5,0-1-0.5-1.5-0.8c0.3-0.6,0.5-1.5,0.9-1.6c2.6-0.6,5.3-1.7,7.8-1.5c9.4,0.8,18.6,2.5,28.2,1.1c6.6-1,13.4,0,20.1-0.3
		c10.1-0.4,20.2-1.1,30.2-2.1c1.1-0.1,2.5-3.1,2.7-4.9c0.6-5.7,0.6-11.4,1.2-17.1c0.1-1,2.2-1.9,3.4-2.8c0.8,1.1,1.8,2.2,2.4,3.5
		c0.3,0.6,0,1.6,0.1,2.4c0.3,8.6,0.9,17.1,0.9,25.6c0,7.8-0.7,15.6-0.9,23.5c0,3,0.8,6,0.9,9c0.5,11.8-0.2,23.8,1.3,35.4
		c2.9,23.8,2.9,47.5,2.7,71.3c-0.1,17.3-0.8,34.5-0.9,51.8c0,10.3,1.1,20.6,0.6,30.8c-0.3,5.8-1.3,11.2,2.3,16.4
		c0.5,0.7-0.6,2.3-0.7,3.6c-0.1,3.3-1,7,0.2,9.9c0.4,1.2,5.4,0.9,8.2,0.7c5.7-0.4,11.5-1.2,17.2-1.9c37.5-4.4,75.1-2.6,112.7-3.1
		c5.8-0.1,11.5-1.6,17.2-1.8c5.2-0.2,10.4,0.4,15.6,0.9c3.7,0.4,4.7-1,4.8-4.7c0.1-12.2,0.5-24.4,0.9-36.6
		c0.3-10.2,0.8-20.4,0.9-30.6c0.5-25.4,0.8-50.8,1-76.2c0.1-6.9-0.9-13.7-0.9-20.6c0.1-8.2,0.9-16.4,0.9-24.6
		c0-9.5-0.5-19.1-0.9-28.6c-0.3-5.1-1-10.2-0.9-15.2c0-4.7,2.7-6.9,7.6-7c13-0.1,26-0.6,39-0.9c2.5-0.1,4.1,0.4,5.9,2.8
		c2.7,3.5,6.9,5.8,10.3,8.7c8.1,6.6,16.4,13.1,24.1,20.2c4,3.7,7.5,3.8,12.1,1.8c2.1-0.9,4.5-1.4,6.8-1.4
		c12.5-0.5,25.1-0.7,37.6-1.2c1.4,0,3.2-1,4-2.1c3.3-4.4,6.7-8.8,9.4-13.6c5.5-9.7,10.5-19.6,15.8-29.4c1.4-2.5,3.6-4.7,4.1-7.3
		c0.7-3.6,0.1-7.4,0.2-11.2c0.3-9.8,0.7-19.7,0.9-29.5c0.1-5.8-1-11.4-5-15.9c-0.7-0.9-2-1.3-3-1.9c-0.3,0.9-0.6,1.9-0.9,2.8
		c-0.2,0.7-0.4,1.4-0.6,2.1c-0.5-0.5-1.2-0.9-1.4-1.4c-5.5-13.5-18.1-20.2-28-29.5c-0.2-0.2-0.7-0.1-0.8-0.3
		c-6.3-11.8-17.3-5.5-26.2-6.4c-5.1-0.5-10.6,2.8-15.7,2.5c-8.5-0.5-11.9,5.3-16.1,10.5c-6.3,7.9-12.5,15.8-18.8,23.7
		c-4.7,6.1-9.8,11.9-13.9,18.3c-1.3,2.1-0.2,5.8,0,8.7c0.2,1.5,1.3,2.9,1.4,4.4c0,0.8-1.1,1.7-1.7,2.6c-0.7-0.5-2-1-2.1-1.6
		c-1.7-7.7-7.6-5.5-12.4-5.3c-8.1,0.3-16.1,1.4-24.2,1.8c-4.1,0.2-6.6,1.5-6.6,6c0,0.7-1.1,1.4-1.6,2.1c-0.5-0.7-1.3-1.3-1.3-2
		c0.3-7.5,0.8-15,0.9-22.6c0.1-3-0.6-6-1.1-9c-0.2-0.6-1.5-1.3-2.4-1.3c-8-0.8-16.1-1.9-24.1-2c-21.4-0.3-42.7,0.2-64-0.2
		c-9.8-0.2-19.8-0.8-29.2-3.2c-11.4-3-23-3.2-34.5-4.6c-7.6-1-15.1-1.4-22.7-2.1c-2.4-0.3-2.7,0.5-3.1,2.8c-1,6.2,2.8,9.9,5.7,14.2
		c5.7,8.4,11.5,16.6,16.9,25.1c1,1.5,0.6,3.9,0.9,5.9c-1.8-1.1-3.8-1.9-5.3-3.2c-2.3-2.1-4.5-4.3-6.3-6.8c-2.5-3.7-4.6-7.7-6.7-11.6
		c-1.9-3.4-2.8-7.8-5.6-10.1c-6.1-5.1-4.1-11.6-4.4-17.8c0-1.2,0.4-2.6,1-3.5c0.9-1.2,2.4-3,3.4-2.8c6.4,0.7,12.8,2,19.3,2.8
		c9,1.1,18.1,2.1,27.2,3c3.4,0.3,5.7,0.4,4.3-5c-1.8-6.9-1.4-14.4-2.3-21.6c-1.1-9.8-2.5-19.6-4-29.3c-0.5-3.8-4.2-4.3-6.9-5
		c-10.3-2.5-20.7-3.5-31.3-3.2c-9.4,0.2-18.9-1.2-28.4-0.8c-20.2,0.9-39.1,6.6-56.2,17.4C190,39,179,46,168.6,53.7
		c-7.3,5.4-14,11.9-20.4,18.3c-6.7,6.7-13.2,13.6-19,21.1c-5,6.5-9.2,13.8-13.1,21.1c-5.6,10.3-10.7,20.9-15.6,31.5
		c-1,2.3-0.7,5.3-0.5,7.9c0.5,6.1,1.5,12.2,1.9,18.2c0.6,9,0.8,18.1,1.1,27.1c0.3,11,0.8,22.1,0.9,33.1c0.2,13.2,0.1,26.4,0.1,39.7
		c0,6,0,12.1,0,18.1c0,0.9,0.2,1.8-0.1,2.5c-0.9,2.2-2.1,4.2-3.1,6.3c-0.6-2-1.5-4-1.8-6.1c-0.5-4.8-1.1-9.7-0.9-14.6
		c0.3-10,1.4-20.1,1.8-30.1c0.2-4.2-0.6-8.4-0.9-12.6c0-0.7,0-1.4,0-2c-0.4-9.2-0.6-18.4-1-27.6c-0.6-13.4-1.4-26.8-2-40.2
		c-0.1-2.8,0.7-5.7,0.9-8.6c0.1-0.7-0.3-1.5-0.5-2.2c-0.8,0.5-2,0.8-2.3,1.5c-1,2.4-1.7,5-2.6,7.4c-4.9,14-10.4,27.8-14.7,41.9
		c-6.4,20.9-12.3,42-17.6,63.2c-2.4,9.5-2.9,19.5-4.2,29.3c-0.4,2.5-0.4,5.1-1.2,7.5c-0.3,1-2.3,1.5-3.6,2.2c-2.3,1.2-5.1,1.8-7,3.4
		c-4.4,3.9-7.7,9-14.5,9.8c-2.1,0.3-3.8,3.4-5.7,5.3c-3.7,3.6-7.2,7.3-10.9,10.8c-0.8,0.7-2,0.8-3.1,1.2c0.2-1.2,0-2.8,0.7-3.6
		c4.2-4.7,8.3-9.7,13.1-13.8c7.6-6.3,16.1-11.5,23.3-18.2c2.6-2.5,3.4-7.7,3.7-11.8c2-22.6,9.3-44.1,14.5-66
		c2.7-11.1,5.2-22.2,7.7-33.3c5.1-23.7,15.1-45.2,28.7-65.1c6.3-9.2,11.8-18.9,18.2-28c4.9-6.9,10.1-13.7,15.9-19.9
		c7.5-7.9,15.3-15.4,23.6-22.5c8.3-7.2,17-14,26.1-20.2c12.2-8.2,25.5-14.5,39.5-19.2C239.1,11.5,254.7,9.7,271,9.6 M101.5,400.6
		c1,0.7,2.5,1.2,3,2.2c0.7,1.5,2,3.7-1.8,3.9c-15.9,0.5-31.7,1.3-47.6,1.9c-8,0.2-7.9,0-8.1,7.8c-0.1,1.1-0.4,2.1-0.6,3.2
		c-0.2,2.1-0.3,4.2-0.4,6.3c1.2-0.4,2.5-1.1,3.8-1.3c13.2-1,26.5-1.8,39.7-3.1c5-0.4,9.9-1.8,14.8-2.7c0.5-0.1,1.4,0.4,1.6,0.9
		c0.8,1.5,1.3,3,1.9,4.6c0-1.7,0.1-3.4,0.2-5.1c0-0.8,0-1.7,0-2.5c0-14.7,0-29.4,0-44.1c0-1,0.3-2.2-0.1-3c-0.7-1.2-1.9-2.9-2.8-2.9
		c-16.2-0.2-32.4-0.3-48.5,0.1c-2.6,0.1-7.3-0.3-7.6,4.7c-0.3,4.1-1.1,8.1-0.9,12.1c0.1,1.9,0.6,4.8,4.3,4.1c3.3-0.7,6.7-0.9,10-1.1
		c11.7-0.4,23.4-0.6,35.1-1.1c2-0.1,5.4,0.7,5.5-3.3c0.3,0.3,0.8,0.5,1,0.9c2.5,4.8,0.1,7.3-7,7.5c-13.3,0.3-26.5,0.7-39.8,1
		c-9.1,0.2-9.1,0.5-9.4,9.7c-0.1,3.8,1.8,3.5,4.2,3.3c6-0.6,12-1.6,18.1-1.9c6.7-0.4,13.3,0.1,20-0.2
		C93.7,402.3,97.3,401.3,101.5,400.6 M199,284.1c0.3,3.2,0.8,6.4,0.9,9.6c0.4,9.9,0.4,9.6,9.9,10c8.3,0.3,16.7,1.4,25,2.3
		c2.5,0.2,5,1,7.5,1.4c2.1,0.4,4.3,0.9,6.4,0.9c6.5-0.1,13-1.1,19.4-0.5c6.9,0.6,7,1.2,6.8-5.8c-0.2-12.3-0.7-24.7-0.9-37
		c0-3.9,1.2-7.8,0.9-11.6c-0.7-8.9-2.5-17.8-2.8-26.8c-0.7-18.8-0.8-37.7-1.1-56.5c0-0.5,0.1-1-0.1-1.5c-0.1-0.2-0.6-0.4-1-0.4
		c-5.5,0.1-11,0.3-16.5,0.4c-17.5,0.3-35,0.5-52.5,1.1c-7.9,0.3-8.1,0.7-7.9,8.9c0.2,11.2,0.6,22.4,1,33.6c0.3,10,0.6,20.1,1,30.1
		c0,0.3-0.1,0.7,0,1C196.3,256.6,197.6,269.8,199,284.1 M461,458.1c-0.7-12-1.5-24.1-1.9-36.2c-0.1-2.8-0.8-3.5-3.6-3.4
		c-12.5,0.8-25.1,1.6-37.6,2.1c-13.2,0.5-26.4,0.9-39.6,0.9c-6.3,0-7.8,1.4-7.4,7.2c0.5,5.7,0.8,11.4,1,17.1
		c0.5,11.7,0.7,23.3,1.1,35c0,1.2,0,2.4,0,3.5c0,6.4,0,12.8-0.1,19.2c0,2-0.1,3.2,2.8,3.2c12.8,0.1,25.7,0.6,38.5,0.9
		c4.4,0.1,8.8-0.1,13.2,0c8.3,0.3,16.7,0.9,25,0.9c6,0.1,11.9-4.9,11.6-9.2C463,485.9,462,472.5,461,458.1 M275,340.1
		c0-7.5-0.1-15,0-22.5c0.1-2.9-0.8-4-3.9-4.1c-14.7-0.2-29.3-0.7-44-0.8c-6.2-0.1-12.4,0.8-18.6,0.9c-9.7,0.1-10,0.3-9.5,10.3
		c0,1,0.5,1.9,0.5,2.8c0,5.3,0.1,10.7-0.2,16c-0.3,5.8-1.2,11.6-1.2,17.4c0,9.9,1.1,19.8,0.7,29.6c-0.3,6.6-0.2,7.7,6.3,7.9
		c11.2,0.5,22.4,1.4,33.7,2c9.8,0.4,19.7,1.1,29.5,0.8c8-0.2,8-0.9,7.7-9.1c-0.1-3.7,0.1-7.4-0.1-11.1c-0.2-5.9-0.8-11.8-0.9-17.6
		C274.8,355.4,275,348.3,275,340.1 M69.5,462.6c0.6,0,1.3,0,2,0c9.5-0.7,19.3-2.8,28.6-1.5c6.8,1,4.7-2.1,4.9-5.1c0-0.5-0.1-1,0-1.5
		c0.4-3.3-1.5-5.4-4.2-5.5c-8.6-0.3-17.2,0-25.7,0c-7.5,0-15,0.4-22.4-0.4c-5.4-0.5-6.7-0.2-6.7,5c0,2,0.3,4.1-0.1,6
		c-0.9,4.9,1.5,5.5,5.4,5C57,463.9,62.7,463.3,69.5,462.6 M338.5,669.6c-21.3-0.3-42.5-0.7-63.7-1c-1,0-1.9,0.3-2.8,0.5
		c0.9,0.5,1.9,1.4,2.8,1.4c3.9,0.2,7.8-0.1,11.7,0.1c8.2,0.6,16.4,1.9,24.6,1.9c18.6,0,37.1-0.4,55.6-1c6-0.2,12.1-1.2,18.1-1.9
		c0.7-0.1,1.3-0.9,2-1.3c-0.8-0.2-1.6-0.6-2.4-0.7c-2.9,0-5.9-0.1-8.8,0C363.6,668.2,351.5,668.9,338.5,669.6 M89,153.1
		c-1.7,3.6-3.6,7.2-4.9,11c-2.3,6.4-4.1,12.9-6.1,19.5c-0.2,0.5,0.2,1.2,0.3,1.8c0.3-0.5,0.8-1.1,1-1.7c1.6-3.8,3.1-7.7,4.7-11.6
		c3.6-8.6,7.3-17.2,11-25.9c0.3-0.8,0.4-1.6,0.6-2.4c-0.9,0.5-2.1,0.7-2.6,1.5C91.5,147.5,90.3,149.8,89,153.1 M213.5,307.6
		c-1.5,0-3,0-4.5,0c-0.3,0-0.6,0.2-0.8,0.3c0.1,0.2,0.2,0.7,0.3,0.7c2.4-0.2,4.9-0.4,7.3-0.7C215.4,307.8,214.9,307.7,213.5,307.6
		 M463,508.1c-0.7,0.7-1.4,1.3-2,2c1,0.3,2,0.7,3,1C463.6,510.4,463.3,509.8,463,508.1"/>
	<path class="st0" d="M106.7,296.4c2.3-2.6,4.1-5.1,6.3-7.2c0.7-0.7,2.4-0.3,3.7-0.4c-0.4,0.9-0.6,2-1.2,2.7
		c-8.6,9.1-17.3,18.1-26,27.1c-2.7,2.8-5.5,5.7-8.5,8.3c-1.1,1-3.1,1.1-4.6,1.6c0.5-1.5,0.7-3.4,1.7-4.4
		C87.5,314.8,97,305.7,106.7,296.4"/>
	<path class="st0" d="M208.2,528.4c2.9,1.9,5.6,3.4,8.1,5.3c1,0.6,1.4,2,2.1,3c-1.7,0.3-3.6,1.4-4.8,0.8c-3.8-1.8-7.2-4.3-10.8-6.6
		c-4.2-2.7-8.2-5.6-12.5-8.3c-4.2-2.5-6-9-3.1-12.6c0.7-0.8,2.6-1.6,3.3-1.2c1.6,1,2.9,2.7,4.3,4.1c-0.8,0.2-1.6,0.6-2.4,0.6
		c-1.1,0-2.2-0.3-3.4-0.5c0.6,1.3,0.8,3.1,1.7,3.7C196.4,520.7,202.2,524.3,208.2,528.4"/>
	<path class="st0" d="M56,514.6c7.8-0.3,15-0.8,22.3-0.9c1.2,0,2.5,1,3.7,1.6c-1.2,0.8-2.4,2.1-3.6,2.2c-3,0.3-6,0-9,0.1
		c-4.1,0.1-8.3,0.4-12.4,0.4c-1.4,0-2.7-0.7-4-1C53.8,516.2,54.6,515.4,56,514.6"/>
	<path class="st0" d="M58,471.6c7-0.3,13.4-0.7,19.9-1c0.6,0,1.3,0.4,1.9,0.7c-0.5,0.4-0.9,1.1-1.4,1.3c-1.1,0.3-2.2,0.3-3.3,0.4
		c-6.4,0.4-12.8,0.7-19.2,1c-0.9,0-1.9-0.7-2.8-1c0.9-0.2,1.8-0.4,2.7-0.7C56.4,472.1,56.9,471.8,58,471.6"/>
	<path class="st0" d="M115.2,379.4c0.1-0.3,0.4-0.4,0.7-0.4C115.7,379.2,115.6,379.4,115.2,379.4"/>
	<path class="st0" d="M241.7,279.9c0,0.2-0.3,0.3-0.6,0.3C241.2,280,241.3,279.8,241.7,279.9"/>
	<path class="st0" d="M101,400.4c-0.7-0.3-1.4-0.8-2-1.4c-0.1-0.2,0.2-0.8,0.3-1.3C99.9,398.5,100.4,399.3,101,400.4"/>
</g>
</svg>
