<?xml version="1.0" encoding="utf-8"?>
<!-- Generator: Adobe Illustrator 23.0.3, SVG Export Plug-In . SVG Version: 6.00 Build 0)  -->
<svg version="1.1" id="Lag_1" xmlns="http://www.w3.org/2000/svg" xmlns:xlink="http://www.w3.org/1999/xlink" x="0px" y="0px"
	 viewBox="0 0 528 814" style="enable-background:new 0 0 528 814;" xml:space="preserve">
<g>
	<path d="M512.6,221.9c0.3,3.2,0.8,5.6,0.8,8.1c0,3.3-1.1,4.5-4.3,4.9c-4.6,0.5-9.3,1.2-13.9,1.2c-6.3,0.1-10.7,5-10.3,10.8
		c0.8,11.4,0.8,22.9,1.4,34.4c0.5,11,1.4,21.9,1.9,32.9c0.4,9.6,0.8,19.3,0.8,28.9c0.1,78.2,0.1,156.3,0,234.5
		c0,13.5-0.6,27-1.1,40.4c-0.5,12.6-1.5,25.2-1.9,37.9c-0.5,17.1-0.9,34.3-0.8,51.4c0,10,1.1,19.9,1.7,29.9
		c0.4,5.8,0.8,11.6,1.1,17.4c0.4,7.6,0.9,15.3,1.2,22.9c0.4,8.8,0.6,17.6,0.8,26.4c0,1.8-0.3,3.5-0.4,5.7c-6.7-1-12.9-1.9-19.4-2.9
		c-0.4-2.4-0.9-4.6-1.1-6.9c-0.4-4.6-0.8-9.3-1-13.9c-0.1-3.5-1.4-5.6-6.1-5.6c-6.5,0-12.9,0.7-19.4,1.1c-2.2,0.1-4.3,0.5-6.4,0.6
		c-14.9,0.8-29.9,1.5-44.9,2.2c-7,0.3-14,0.7-20.9,0.9c-11.5,0.4-23,0.8-34.4,1c-16.5,0.4-33,0.6-49.4,0.9c-2.1,0-4.3,0.3-6.4,0.8
		c-5.4,1.4-7.5,3.9-7.9,9.5c-0.2,3.5-0.1,7-0.2,10.5c0,0.8-0.2,1.6-0.3,2.2c-0.5,0.3-0.8,0.6-1.1,0.6c-8.4,0.7-8.7,0.5-9.5-7.8
		c-0.3-3.3-0.2-6.7-0.3-10c-0.3-5.7-3.1-7.9-8.7-7.3c-4.4,0.6-8.9,0.8-13.4,1.2c-9.3,0.8-18.6,1.4-27.8,2.3
		c-8.9,0.8-17.8,1.9-26.8,2.7c-5,0.5-9.9,0.8-14.9,1c-9.1,0.5-18.3,0.8-27.4,1.2c-16.1,0.7-32.2,1.3-48.4,2c-0.8,0-1.6,0.2-2.5,0.3
		c-4.2,0.6-6.9,3-8,7.2c-0.6,2.2-1.1,4.4-1.7,6.9c-3.4,0-6.6,0-9.8,0c-1.1-5.7-2.7-10.9-5.8-15.5c-2.7-4-3.6-8.6-3.7-13.3
		c-0.1-5.7,0.1-11.3,0-17c-0.1-7.6-2.9-10.4-10.6-10.7c-7.5-0.3-15-0.7-22.4-1c-4.6-0.2-4.9-0.4-4.9-4.8c0-2.5,0-4.9,0-7.6
		c1.1-0.2,1.9-0.5,2.7-0.6c7.6-0.4,15.3-0.8,22.9-1.1c0.8,0,1.7,0,2.5-0.1c5.5-0.7,7.8-2.9,7.8-8.5c0.1-13.5,0.7-27.1-0.3-40.5
		c-2.1-26.4-1.7-52.9-1.8-79.4c0-18.2,0-36.3,0-54.5c0-1.2,0.1-2.3-0.1-3.5c-0.4-2.9-1.7-5.1-4.8-5.6c-1.6-0.3-3.3-0.6-4.9-0.7
		c-6-0.1-12,0-18-0.3c-3.6-0.1-7.3-0.5-10.9-1.1c-0.9-0.1-2.4-1.2-2.4-1.9c-0.3-2.7-0.1-5.5-0.1-8.7c0.8-0.3,2-1,3.2-1.2
		c4.6-0.5,9.3-1,13.9-1c5.6,0.1,11.3,0.5,16.9,1.3c4.8,0.7,7.2-2.1,7.1-6c-0.1-4.8-0.4-9.6-0.5-14.5c-0.1-3.8-0.2-7.7-0.3-11.5
		c-0.1-7.3-0.1-14.7-0.2-22c-0.3-13-0.6-26-1-38.9c-0.2-7.4,0.8-14.6,1.7-21.8c0.3-2.5,0.4-5,0.1-7.5c-1.5-13.9-3.4-27.7-4.8-41.6
		c-1-10.1-1.7-20.2-1.9-30.3c-0.6-23.1-0.8-46.3-1.2-69.4c-0.3-14.6-0.6-29.3-0.8-43.9c0-1-0.2-2-0.3-3.2c-1.1-0.2-2.2-0.6-3.3-0.6
		c-6,0-12,0.2-18,0.2c-4.1,0-8.2-0.3-13-0.4c-0.1-2.8-0.2-5.4-0.3-8c0-2.7,0-5.3,0-8.4c1.8-0.5,3.5-1.2,5.2-1.4
		c7.1-0.8,14.2-1.7,21.3-2.1c2.9-0.2,4.8-1.4,5.8-3.9c1-2.5,2.1-5,2.4-7.6c0.6-4.9,0.8-9.9,1.1-14.9c0.4-6.6,0.8-13.3,1.1-19.9
		c0.1-2.7,1.1-4.8,3.5-6.2c1.6-0.9,3.1-1.9,4.7-2.9c3.7,3.7,6.1,7.3,6.2,12.8c0.1,11.3,1.1,22.6,1.6,33.9c0.3,7,0.4,14,0.2,21
		c-0.3,14.6-0.3,29.3-1.4,43.9c-0.6,8.9-0.4,17.6,1.2,26.3c0.2,1.3,0.2,2.7,0.2,4c0.3,18.5,0.5,37,1.1,55.4
		c0.4,9.8,1.7,19.5,2.6,29.3c0.3,3.6,0.9,7.3,1.2,10.9c0.8,10.9,1.5,21.9,2.2,32.8c3.3,48.6,1.7,97.2,1.6,145.8
		c0,15.5-0.7,31-0.9,46.4c-0.3,14.8-0.8,29.6-0.6,44.4c0.1,11.5,1.2,22.9,1.5,34.4c0.2,7.6-0.4,15.3-0.4,22.9
		c-0.1,9-1.5,18,0.7,26.9c0.8,3,1.9,6,3.5,8.7c1.2,2.1,1.1,3.9,0.6,6.1c-1.7,6.8-2.3,13.7-1.9,20.7c0,1,0.6,1.9,0.7,2.9
		c0.3,2.5,1.8,3.6,4,3.6c5.5,0,11,0.1,16.5-0.2c5.3-0.3,10.6-1.1,15.8-1.7c6.8-0.8,13.5-1.5,20.3-2.3c4.3-0.5,8.6-1.2,12.8-1.6
		c9.8-0.8,19.5-1.6,29.3-2.2c13.9-0.8,27.9-1.3,41.8-2.1c32.1-1.8,64.3-0.6,96.4-0.9c22-0.2,44,0.2,66-0.2
		c8.9-0.2,17.9-1.4,26.8-2.5c13.6-1.7,27.2-2,40.8-0.5c4,0.4,7.9,0.9,11.9,1.1c5.4,0.4,7.7-1.4,8.5-6.7c0.4-2.6,0.7-5.3,0.8-7.9
		c0.2-11,0.1-22,0.3-33c0.2-12.3,0.7-24.6,1-36.9c0.3-9.3,0.7-18.6,1-27.9c0.4-12.3,0.8-24.6,1-36.9c0.4-16.3,0.7-32.6,0.9-48.9
		c0.4-29.1,0.7-58.3,1.1-87.4c0.2-16.6,0.7-33.3,0.6-49.9c0-8.6-1.2-17.2-1.6-25.9c-0.3-6.3-0.4-12.7-0.2-19
		c0.4-12.3,1.5-24.6,1.7-36.9c0.2-12.3-0.3-24.6-0.5-36.9c0-1.5-0.1-3-0.1-4.5c-0.4-12.6-0.5-25.3-1.3-37.9
		c-0.7-10.4-2.1-20.8-1.9-31.3c0-1.7,0-3.4,0.4-5c1.7-7,5.3-10.2,14.9-11.6c2.5-0.3,5-0.1,7.5-0.1
		C501.2,221.9,506.6,221.9,512.6,221.9z"/>
	<path d="M511.2,99.3c-0.5,5.2-0.9,9.7-1.4,14.6c-7.1,0.8-13.9,1.5-20.6,2.2c-4.8,0.5-8.8,2-10.6,6.9c-0.5,1.2-0.5,2.6-0.6,3.9
		c-0.3,2.8-1.6,5-4.4,6.4c-2.4-1.8-4.1-3.8-3-7.1c0.2-0.6,0.1-1.3,0.2-2c0.4-15.3,0.9-30.6,1.3-45.9c0.2-6-0.8-11.9-1.9-17.8
		c-0.6-2.8-2.2-4-4.7-4.3c-6.1-0.7-12.2-1.5-18.3-2c-11.7-1-23.5-1.9-35.3-2.8c-1.5-0.1-3-0.1-4.5-0.1c-47.7-0.1-95.3,0.1-143-0.3
		c-21.6-0.2-43.1-2.3-64.1-7.8C190,40.6,179.5,39,168.9,38c-13.6-1.2-27.1-2.7-40.6-4c-14-1.4-28.1-2.7-42.1-4
		c-3.6-0.3-7.3-0.7-10.9-0.9c-4-0.2-4.8-0.2-5.8,5c-1.2,6.9-0.1,13.6,3.9,19.6c5.7,8.4,11.5,16.7,17.2,25.1
		c9.5,14.1,18.9,28.2,28.4,42.3c3,4.4,2.3,9.1,2.2,14.4c-5.1-2.2-9.4-4.6-13.3-8c-8.6-7.6-15.3-16.7-20.5-26.8
		c-4.3-8.3-8.4-16.6-12.5-25c-2.1-4.4-4.6-8.4-8.3-11.7c-5.9-5.3-8.7-12.1-8.7-20c0-6.3,0.1-12.7,0-19c-0.1-5.3,2.8-9.1,6.3-12.5
		c1.8-1.8,4.1-2,6.5-1.6c9.3,1.4,18.7,2.9,28,4.3c6.6,1,13.2,1.8,19.7,2.6c7.2,0.9,14.5,1.8,21.7,2.6c3.6,0.4,7.3,0.9,10.9,1.2
		c6.3,0.7,12.5,1.4,18.8,2c2.3,0.2,4.7,0.2,7,0.1c3.5-0.1,4.8-1.4,4.9-4.9c0-1.6-0.5-3.3-0.7-4.9c-0.4-3.3-0.8-6.6-1.1-9.9
		c-0.1-0.8,0.3-1.6,0.5-2.2c3.9,0,7.5-0.1,11.1,0c3.5,0.2,4.3,1.1,4.4,4.6c0.1,4-0.1,8,0,12c0.1,7.2,2.4,10.4,9.5,10.9
		c5.7,0.5,11.5,1.1,17.4,0.7c11.6-0.8,23.2-0.9,34.8,1.3c6.5,1.2,13.2,1.8,19.8,2.3c12.1,1,24.2,1.9,36.3,2.8
		c1.8,0.1,3.7,0.1,5.5,0.1c30.3,0.1,60.7,0,91,0.4c10.3,0.1,20.5,1.6,30.8,2.5c5.8,0.5,11.5,1.4,17.3,1.9c1.1,0.1,2.3-0.4,3.4-0.6
		c2.4-0.5,4.9-1,7.3-1.4c7-1.2,12.1,2.4,13.1,9.5c0.2,1.3,0.2,2.7,0.2,4c0,12.5,0.1,25-0.2,37.5c-0.2,6.4,2.3,8.8,8.5,8.5
		c5-0.2,10-0.1,15,0C507.1,99,508.8,99.2,511.2,99.3z"/>
</g>
</svg>
