<?xml version="1.0" encoding="utf-8"?>
<!-- Generator: Adobe Illustrator 23.0.3, SVG Export Plug-In . SVG Version: 6.00 Build 0)  -->
<svg version="1.1" id="Lag_1" xmlns="http://www.w3.org/2000/svg" xmlns:xlink="http://www.w3.org/1999/xlink" x="0px" y="0px"
	 viewBox="0 0 525.7 639" style="enable-background:new 0 0 525.7 639;" xml:space="preserve">
<style type="text/css">
	.st0{fill:#090708;}
</style>
<g id="Form_1_1_">
	<desc  xmlns:shape="http://adobe.com/products/shape"></desc>
	<path class="st0" d="M509.5,77.5c0.1,27.9,0.2,55.7,0.3,83.6c-1.5-24.7-3.1-49.3-4.6-74c-0.2-2.1-0.4-4.4-2.1-5.7
		c-1.4-1-3.3-0.9-5.1-0.7c-27.3,2.4-54.6,4.9-81.9,7.3c-9.1,87-13.7,174.4-13.8,261.9c0,9.6,0,19.4-1.9,28.8
		c-4.2-45.9-5.1-92.1-2.8-138.2c0.4-7.3-10-9.1-17.2-7.7c-7.2,1.4-17.2,1.7-19-5.3c9.5,0.3,19.1,0.7,28.6,1c2.5,0.1,5.3,0.1,7.3-1.5
		c2-1.8,2.3-4.9,2.4-7.6c0.8-20.3,1.7-40.7,2.5-61c-12,1.9-24.4,2-36.5,0.3c12.4-3.7,25.5-5.1,38.5-4.1c2.7-22.6,4.2-45.2,4.5-67.9
		c-13.2,1.6-26.7,0.9-39.6-1.9c50.9-6.7,102-11.2,153.3-13.6c-6.2,183.9-16,367.6-29.3,551.1c-0.2,2.6-0.4,5.3-2,7.3
		c-2.4,3-6.8,3.4-10.7,3.4c-157.7,2.4-316,3.9-472.7-14.3c20-3,40.3-1.5,60.5,0c51.8,3.8,103.6,7.6,155.4,11.5
		c-1.4-47.1-2.8-94.2-4.2-141.4c0-1.9,0-4,1.2-5.5c1.2-1.5,3.3-2,5.2-2.3c31.9-5.5,64.7-6,96.8-1.6c-32.7,2-65.4,4-98.1,6
		c1.5,45.1,3,90.1,4.4,135.2c0.1,2.6,0.3,5.4,2.2,7.2c1.8,1.8,4.7,1.9,7.4,1.9c80.6-0.5,161.1-1.1,241.7-1.6c1.8,0,3.7-0.1,5.2-1
		c2.5-1.6,3-5,3.2-8c2.6-36.5,5.1-73.1,7.7-109.6c2.6-36.1-44.2-58.5-48.6-94.4c17.8,21,34,43.4,48.2,66.9
		c9.4-135.1,16.4-270.5,20.9-405.9C514.3,76.6,511.9,77,509.5,77.5"/>
	<path class="st0" d="M322.4,108.6c-1.2-7.5-1.8-15.1-1.9-22.8c0-1.1,0.1-2.5,1.2-2.9C323.5,91.4,323.7,100.1,322.4,108.6"/>
	<path class="st0" d="M393.4,268.6c1.1,0.8,0.8,2.8-0.4,3.7c-1.1,0.8-2.7,0.8-4.1,0.8c-8.5,0-17,0-25.5-0.1c-0.6-1-0.7-2.3-0.5-3.4
		C373,268.3,383.2,268,393.4,268.6"/>
	<path class="st0" d="M388.2,303.5c-7.1-0.4-14.2-0.9-21.3-1.3c-1.2-0.1-2.4-0.2-3.3-0.9c-0.9-0.8-1.1-2.3-0.5-3.4
		c10.1,0.4,20.2,0.9,30.3,1.3c1,1.1,0.3,3-0.9,3.7C391.2,303.7,389.7,303.6,388.2,303.5"/>
	<path class="st0" d="M394.9,347.8c-8.8-0.4-17.6-1.3-26.3-2.6c-2-0.3-4.6-2-3.4-3.6c8.2-0.5,16.4,0.1,24.5,1.5
		C392.3,343.6,395.6,345.2,394.9,347.8"/>
	<path class="st0" d="M367.5,216.6c-1.2-0.7-0.9-2.6,0.1-3.6c1-0.9,2.5-1.2,3.8-1.4c8.8-1.2,17.6-2,26.4-2.3
		c0.9,2.8-3.1,4.5-6.1,4.8C383.7,215,375.6,215.8,367.5,216.6"/>
	<path class="st0" d="M363,184.7c10-0.8,20.1-1,30.1-0.6c2,0.1,4.8,1.7,3.6,3.3c-0.4,0.5-1.2,0.7-1.9,0.8
		c-9.5,1.4-19.2,1.4-28.7,0.1C364.2,188,361.6,186.1,363,184.7"/>
	<path class="st0" d="M404,95.4c-0.6,0.9-1.1,1.9-1.6,2.8c-10.1,0.1-20.1,0-30.1-0.4c-1.2-0.1-2.4-0.2-3.3-0.9
		c-0.9-0.7-1.2-2.3-0.3-2.9c0.5-0.4,1.1-0.4,1.7-0.4c9.6-0.1,19.3-0.3,29-0.4C401.2,93.2,403.7,93.6,404,95.4"/>
	<path class="st0" d="M320.6,156.3c-1-12.6-1-25.2,0-37.8c0.2-3,0.5-6,2.1-8.5C323.2,125.4,322.5,141,320.6,156.3"/>
	<path class="st0" d="M403,117.4c-0.8,1-1.7,2-2.5,3.1c-8.9,1.1-17.9,2.2-26.8,3.3c-1.5,0.2-3.2,0.4-4.6-0.2
		c-1.5-0.7-2.6-2.4-1.9-3.9c0.7-1.3,2.5-1.6,4-1.7c8.6-0.7,17.1-1.3,25.7-1.9C399,116,401.4,115.9,403,117.4"/>
	<path class="st0" d="M157.5,473.5c-0.7-0.4-1.2-1.1-1.6-1.8c-2.5-4.4-3.4-10.2-0.7-14.4c2.8-4.3,9.8-5.6,13-1.6
		c3.3,4.1,0.8,10.9,3.8,15.2c-3.5,0.9-7,1.8-10.6,2.6C160.1,473.9,158.6,474.2,157.5,473.5 M159,460.7c0,2.1,0,4.4,1.3,6
		c1.4,1.7,4.4,1.9,5.3,0c1-2.2-1.7-4.8-0.7-7c-1.6-1.9-5.1-1.5-6.2,0.8"/>
	<path class="st0" d="M149.4,166.9c1-0.1,2.1-0.1,2.8,0.6c0.6,0.6,0.6,1.5,0.6,2.4c0.2,6,0.3,12,0.4,18.1c0,1.2,0,2.6-0.9,3.4
		c-0.8,0.7-1.9,0.7-2.9,0.7c-3.1,0-6.1,0-9.2-0.1c-1.7,0-3.4,0-4.8-1c-1.6-1.2-2-3.5-2.1-5.5c-0.5-4.4-0.6-8.9-0.4-13.4
		c0.1-0.6,0.1-1.4,0.5-1.9c0.5-0.6,1.3-0.8,2-1C140,168,144.7,167.3,149.4,166.9 M146.7,186c0.9-1.2,0.9-2.8,0.8-4.3
		c-0.2-2.2-0.5-4.5-1.9-6.2c-1.4-1.7-4.2-2.5-5.8-1c-1.1,3.1-2.1,6.5-0.9,9.5C140.1,187.1,144.8,188.7,146.7,186"/>
	<path class="st0" d="M308.5,279c0.7-25.9,1.4-51.8,2.2-77.6c1.8-65,3.6-130.1-1.2-194.9c7.1,2.3,8.5,11.6,8.6,19
		c0.8,83.2-0.8,166.5-4.7,249.6C313.2,278.1,309.4,281.8,308.5,279"/>
	<path class="st0" d="M17,21.2c69.1-1.8,138.2-3.7,207.3-5.5c17.5-0.5,35.1-1,52.4-3.9c10.1-1.7,20.5-4.1,30.3-1.4
		c0.5,3.3-3.9,4.9-7.2,5.2c-88.9,9.2-178.5,9.6-267.9,9.9C26.6,25.5,20.5,25.3,17,21.2"/>
	<path class="st0" d="M362.6,59.4c2-0.5,4-1,6-1.5c-7.5,98.5-11,197.2-10.6,295.9c-4.9-3.5-5.3-10.5-5.3-16.5
		C353.1,244.6,356.4,151.9,362.6,59.4"/>
	<path class="st0" d="M142.2,417.4c-2.3-58.3-2.2-116.6,0.1-174.9c0-2.1,0.2-4.4,1.5-6.1c0.7-1,1.8-1.7,3-2.1
		c4.8-1.6,10.2,1.5,12.8,5.8c2.6,4.4,3.1,9.6,3.5,14.7c4.2,56.2,3.1,112.7,2,169.1c-4.4,1.5-9,3-13.6,2.3
		C146.9,425.5,142.3,422,142.2,417.4 M154.6,241.3c-2.1-1.5-5.3-0.1-6.5,2.1c-1.3,2.3-1.3,5-1.2,7.6c1.7,56-4,112.4,2.2,168.1
		c1.6,2.7,6,2.2,7.9-0.3c2-2.4,2.1-5.8,2.1-8.9c0.2-11.4,0.3-22.9,0.5-34.3C160.2,330.8,160.7,285.7,154.6,241.3"/>
	<path class="st0" d="M24.5,66.7c-0.4-11.9-0.9-23.8-1.4-35.8c2,1.3,4.9,0.8,6.5-1c11,194.5,7.2,389.8-11.3,583.7
		c-3.5-1.4-3.9-6.1-3.6-9.8c8.7-152,19.5-304.2,13.2-456.3C26.8,120.6,25.7,93.6,24.5,66.7"/>
</g>
</svg>
